<!--?xml version="1.0" encoding="utf-8"?-->
<!-- Generator: Adobe Illustrator 18.1.1, SVG Export Plug-In . SVG Version: 6.00 Build 0)  -->

<svg version="1.1" id="_x32_" xmlns="http://www.w3.org/2000/svg" xmlns:xlink="http://www.w3.org/1999/xlink" x="0px" y="0px" viewBox="0 0 512 512" xml:space="preserve">
<style type="text/css">
	.st0{fill: #25c2a0;}
</style>
<g>
	<rect x="293.186" y="307.184" class="st0" width="131.572" height="112.986"></rect>
	<rect x="87.243" y="308.893" class="st0" width="154.448" height="17.162"></rect>
	<rect x="87.243" y="401.298" class="st0" width="154.448" height="17.162"></rect>
	<rect x="87.243" y="355.1" class="st0" width="154.448" height="17.162"></rect>
	<path class="st0" d="M416.428,0.004H95.58C42.787,0.013,0.016,42.792,0,95.577v303.685
		c0.025,62.262,50.463,112.717,112.742,112.734h286.524c62.27-0.017,112.717-50.464,112.734-112.734V95.577
		C511.992,42.792,469.212,0.013,416.428,0.004z M464.805,399.262c-0.008,18.15-7.308,34.424-19.198,46.34
		c-11.916,11.891-28.19,19.19-46.34,19.198H112.742c-18.15-0.009-34.433-7.308-46.348-19.198
		c-11.892-11.916-19.182-28.19-19.198-46.34V118.696h417.61V399.262z"></path>
	<path class="st0" d="M88.96,267.908h34.583c19.71,0,31.642-8.581,31.642-26.548c0-10.852-6.167-18.368-12.2-20.648v-0.268
		c6.034-3.352,10.592-9.519,10.592-19.432c0-14.489-9.251-24.268-29.086-24.268H88.96c-0.796,0-1.332,0.536-1.332,1.34v88.475
		C87.628,267.371,88.164,267.908,88.96,267.908z M107.338,193.495c0-0.528,0.251-0.804,0.804-0.804h13.944
		c7.5,0,11.925,3.888,11.925,10.584c0,6.712-4.425,10.734-11.925,10.734h-13.944c-0.553,0-0.804-0.268-0.804-0.804V193.495z
		 M107.338,229.955c0-0.528,0.251-0.795,0.804-0.795h15c8.061,0,12.343,4.424,12.343,11.405c0,7.097-4.282,11.396-12.343,11.396h-15
		c-0.553,0-0.804-0.276-0.804-0.812V229.955z"></path>
	<path class="st0" d="M181.516,267.908h59.404c0.796,0,1.332-0.536,1.332-1.349v-14.874c0-0.813-0.536-1.341-1.332-1.341h-40.224
		c-0.544,0-0.804-0.268-0.804-0.812v-71.447c0-0.804-0.528-1.34-1.341-1.34h-17.036c-0.805,0-1.332,0.536-1.332,1.34v88.475
		C180.183,267.371,180.711,267.908,181.516,267.908z"></path>
	<path class="st0" d="M292.708,269.374c15.963,0,28.558-7.366,33.251-22.115c2.011-6.301,2.539-11.396,2.539-24.938
		c0-13.542-0.528-18.637-2.539-24.939c-4.693-14.739-17.288-22.114-33.251-22.114c-15.956,0-28.558,7.375-33.243,22.114
		c-2.02,6.302-2.556,11.397-2.556,24.939c0,13.542,0.536,18.637,2.556,24.938C264.149,262.009,276.752,269.374,292.708,269.374z
		 M278.361,202.746c2.011-6.301,6.847-10.055,14.346-10.055c7.508,0,12.335,3.754,14.346,10.055
		c1.073,3.226,1.474,7.634,1.474,19.576c0,11.924-0.402,16.357-1.474,19.567c-2.011,6.31-6.838,10.072-14.346,10.072
		c-7.5,0-12.335-3.763-14.346-10.072c-1.064-3.21-1.475-7.643-1.475-19.567C276.886,210.38,277.297,205.972,278.361,202.746z"></path>
	<path class="st0" d="M387.961,269.374c16.081,0,28.685-8.171,33.251-22.794c1.6-4.952,2.263-12.46,2.263-20.505v-7.517
		c0-0.788-0.536-1.333-1.332-1.333h-31.366c-0.813,0-1.349,0.545-1.349,1.333v12.888c0,0.796,0.536,1.332,1.349,1.332h12.326
		c0.536,0,0.805,0.277,0.805,0.805c0,3.879-0.403,6.703-1.073,8.991c-1.878,6.026-7.777,9.386-14.614,9.386
		c-7.91,0-12.88-3.763-14.891-10.072c-1.064-3.21-1.466-7.643-1.466-19.567c0-11.941,0.402-16.223,1.466-19.441
		c2.011-6.302,6.847-10.19,14.631-10.19c7.5,0,12.05,3.218,15.678,9.385c0.269,0.67,0.939,0.939,1.886,0.67l14.338-6.033
		c0.796-0.402,0.947-1.206,0.536-2.019c-4.299-10.995-15.419-19.425-32.439-19.425c-16.232,0-28.835,7.375-33.527,22.114
		c-2.012,6.302-2.556,11.397-2.556,24.939c0,13.542,0.545,18.637,2.556,24.938C359.126,262.009,371.73,269.374,387.961,269.374z"></path>
</g>
</svg>
