<svg xmlns="http://www.w3.org/2000/svg" xml:space="preserve" id="_x32_" x="0" y="0" viewBox="0 0 512 512"><style>.st0{fill:#2e8555}</style><path d="M293.186 307.184h131.572V420.17H293.186zM87.243 308.893h154.448v17.162H87.243zM87.243 401.298h154.448v17.162H87.243zM87.243 355.1h154.448v17.162H87.243z" class="st0"/><path d="M416.428.004H95.58C42.787.013.016 42.792 0 95.577v303.685c.025 62.262 50.463 112.717 112.742 112.734h286.524c62.27-.017 112.717-50.464 112.734-112.734V95.577C511.992 42.792 469.212.013 416.428.004m48.377 399.258c-.008 18.15-7.308 34.424-19.198 46.34-11.916 11.891-28.19 19.19-46.34 19.198H112.742c-18.15-.009-34.433-7.308-46.348-19.198-11.892-11.916-19.182-28.19-19.198-46.34V118.696h417.61v280.566z" class="st0"/><path d="M88.96 267.908h34.583c19.71 0 31.642-8.581 31.642-26.548 0-10.852-6.167-18.368-12.2-20.648v-.268c6.034-3.352 10.592-9.519 10.592-19.432 0-14.489-9.251-24.268-29.086-24.268H88.96c-.796 0-1.332.536-1.332 1.34v88.475c0 .812.536 1.349 1.332 1.349m18.378-74.413c0-.528.251-.804.804-.804h13.944c7.5 0 11.925 3.888 11.925 10.584 0 6.712-4.425 10.734-11.925 10.734h-13.944c-.553 0-.804-.268-.804-.804zm0 36.46c0-.528.251-.795.804-.795h15c8.061 0 12.343 4.424 12.343 11.405 0 7.097-4.282 11.396-12.343 11.396h-15c-.553 0-.804-.276-.804-.812zM181.516 267.908h59.404c.796 0 1.332-.536 1.332-1.349v-14.874c0-.813-.536-1.341-1.332-1.341h-40.224c-.544 0-.804-.268-.804-.812v-71.447c0-.804-.528-1.34-1.341-1.34h-17.036c-.805 0-1.332.536-1.332 1.34v88.475c0 .811.528 1.348 1.333 1.348M292.708 269.374c15.963 0 28.558-7.366 33.251-22.115 2.011-6.301 2.539-11.396 2.539-24.938s-.528-18.637-2.539-24.939c-4.693-14.739-17.288-22.114-33.251-22.114-15.956 0-28.558 7.375-33.243 22.114-2.02 6.302-2.556 11.397-2.556 24.939s.536 18.637 2.556 24.938c4.684 14.75 17.287 22.115 33.243 22.115m-14.347-66.628c2.011-6.301 6.847-10.055 14.346-10.055 7.508 0 12.335 3.754 14.346 10.055 1.073 3.226 1.474 7.634 1.474 19.576 0 11.924-.402 16.357-1.474 19.567-2.011 6.31-6.838 10.072-14.346 10.072-7.5 0-12.335-3.763-14.346-10.072-1.064-3.21-1.475-7.643-1.475-19.567 0-11.942.411-16.35 1.475-19.576M387.961 269.374c16.081 0 28.685-8.171 33.251-22.794 1.6-4.952 2.263-12.46 2.263-20.505v-7.517c0-.788-.536-1.333-1.332-1.333h-31.366c-.813 0-1.349.545-1.349 1.333v12.888c0 .796.536 1.332 1.349 1.332h12.326c.536 0 .805.277.805.805 0 3.879-.403 6.703-1.073 8.991-1.878 6.026-7.777 9.386-14.614 9.386-7.91 0-12.88-3.763-14.891-10.072-1.064-3.21-1.466-7.643-1.466-19.567 0-11.941.402-16.223 1.466-19.441 2.011-6.302 6.847-10.19 14.631-10.19 7.5 0 12.05 3.218 15.678 9.385.269.67.939.939 1.886.67l14.338-6.033c.796-.402.947-1.206.536-2.019-4.299-10.995-15.419-19.425-32.439-19.425-16.232 0-28.835 7.375-33.527 22.114-2.012 6.302-2.556 11.397-2.556 24.939s.545 18.637 2.556 24.938c4.693 14.75 17.297 22.115 33.528 22.115" class="st0"/></svg>