<!--?xml version="1.0" encoding="utf-8"?-->
<!-- Generator: Adobe Illustrator 15.1.0, SVG Export Plug-In . SVG Version: 6.00 Build 0)  -->

<svg version="1.1" id="_x32_" xmlns="http://www.w3.org/2000/svg" xmlns:xlink="http://www.w3.org/1999/xlink" x="0px" y="0px" width="512px" height="512px" viewBox="0 0 512 512" xml:space="preserve">

<g>
	<path fill="#252ca0" class="st0" d="M509.531,289.882c-1.813-5.688-4.5-10.891-7.828-15.453c-0.547-0.797-1.063-1.469-1.672-2.203
		c-1.063-1.734-2.281-3.344-3.688-4.938l-8.281-7.297l-37.625-33.078l-20.25-17.781l38.625-34.234
		c5.813-5.156,6.344-14.031,1.203-19.844c-5.078-5.828-13.969-6.359-19.797-1.219l-41.313,36.578L292.203,293.695
		c-7.359,6.484-16.719,9.953-26.359,9.953c-2.797,0-5.594-0.266-8.406-0.875l-66.719-14.766l-80.563-17.781l-56.469-12.5
		l-8.094-1.797c-2.547-0.875-4.813-2.016-6.813-3.484c-3.219-2.344-5.75-5.344-7.5-8.828c-1.797-3.469-2.75-7.359-2.75-11.297
		c0-2.406,0.406-4.953,1.156-7.422c0.875-2.672,2.125-5.078,3.672-7.203c2.281-3.219,5.344-5.766,8.813-7.5
		c3.422-1.797,7.297-2.75,11.234-2.75c0.672,0,1.344,0.078,2,0.078l58.234,12.563l135.047,29.219
		c16.703,3.672,34.156-0.875,46.984-12.234l83.016-73.125l84.781-74.672c7.625-6.766,10.828-17.188,8.219-27.016
		c-2.531-9.891-10.438-17.453-20.391-19.594l-10.563-2.266l-77.016-16.656L266.188,2.695c-16.703-3.672-34.156,0.859-46.984,12.234
		L88.906,129.382l-39.172,34.422l-34.078,29.953c-1.422,1.594-2.625,3.203-3.688,4.938c-0.609,0.734-1.141,1.406-1.672,2.203
		c-3.344,4.563-6.016,9.766-7.828,15.453C0.813,221.632,0,227.039,0,232.32c0,11.438,3.672,22.328,10.156,31.281
		c3.281,4.547,7.219,8.563,11.844,11.906c4.531,3.344,9.75,6.016,15.438,7.75l0.594,0.203l59.438,13.031l11.5,10.234l-1.688,1.469
		l-39.156,34.438L34.031,372.57c-1.406,1.609-2.609,3.219-3.688,4.953c-0.594,0.734-1.125,1.406-1.656,2.203
		c-3.344,4.547-6.031,9.75-7.828,15.438c-1.672,5.281-2.484,10.703-2.484,15.984c0,11.422,3.688,22.313,10.156,31.281
		c3.281,4.547,7.219,8.563,11.844,11.906c4.547,3.344,9.766,6.016,15.438,7.75l0.594,0.203l59.438,13.031l56.297,12.297
		l97.734,21.391c4.75,1.063,9.547,1.547,14.375,1.547c16.375,0,32.344-5.891,44.906-16.922l3.344-2.938l116.063-102.75
		l38.641-34.234c1.734-1.531,2.953-3.328,3.734-5.344c4.219-3.203,7.906-7.016,10.906-11.234
		c6.469-8.953,10.156-19.844,10.156-31.281C512,300.57,511.188,295.164,509.531,289.882z M427.313,369.226L310.578,472.507
		c-7.359,6.5-16.703,9.969-26.328,9.969c-2.813,0-5.625-0.281-8.438-0.875l-66.703-14.781l-80.547-17.781l-56.5-12.484l-8.094-1.813
		c-2.531-0.875-4.813-2-6.813-3.484c-3.203-2.328-5.75-5.344-7.5-8.813c-1.797-3.484-2.734-7.359-2.734-11.297
		c0-2.406,0.406-4.953,1.141-7.421c0.875-2.672,2.141-5.078,3.688-7.219c2.266-3.219,5.344-5.75,8.813-7.484
		c3.406-1.813,7.281-2.75,11.234-2.75c0.672,0,1.328,0.063,2,0.063l58.234,12.578l135.031,29.203
		c16.719,3.688,34.156-0.859,47-12.234l36.094-31.75l80.156-17.578L427.313,369.226z M480.719,317.164
		c-1.75,3.469-4.281,6.484-7.5,8.813c-2,1.469-4.281,2.609-6.813,3.484L394,345.492L254.563,376.32
		c-2.75,0.594-5.625,0.859-8.422,0.859c-9.625,0-18.984-3.469-26.344-9.953l-66.047-58.422l97.734,21.391
		c4.75,1.063,9.563,1.531,14.359,1.531c16.391,0,32.375-5.875,44.938-16.922l3.344-2.938l142.516-30.813
		c0.672,0,1.281-0.063,1.953-0.063c2.531,0,5,0.391,7.344,1.141c1.344,0.391,2.672,0.922,3.938,1.594
		c3.422,1.734,6.5,4.281,8.844,7.5c1.531,2.125,2.719,4.531,3.594,7.203c0.797,2.484,1.156,5.016,1.156,7.422
		C483.469,309.804,482.5,313.679,480.719,317.164z"></path>
</g>
</svg>
