<svg xmlns="http://www.w3.org/2000/svg" xml:space="preserve" id="_x32_" x="0" y="0" viewBox="0 0 512 512"><style>.st0{fill:#2e8555}</style><path d="m504.16 183.326-17.24-17.233c-10.453-10.461-27.415-10.452-37.868 0l-16.127 16.136 55.1 55.099 16.135-16.126c10.453-10.461 10.453-27.415 0-37.876M18.474 178.378H64.86c10.199 0 18.474-8.274 18.474-18.49 0-10.208-8.275-18.482-18.474-18.482H18.474C8.274 141.406 0 149.68 0 159.888c0 10.216 8.274 18.49 18.474 18.49M22.83 197.722h34.583v116.557H22.83zM83.334 352.113c0-10.208-8.275-18.491-18.474-18.491H18.474C8.274 333.622 0 341.905 0 352.113s8.274 18.482 18.474 18.482H64.86c10.199 0 18.474-8.275 18.474-18.482M139.594 150.44h155.624v25.937H139.594zM139.594 245.543h155.624v25.938H139.594zM139.594 340.647h95.104v25.937h-95.104z" class="st0"/><path d="M57.413 71.556c.008-3.977 3.242-7.211 7.215-7.219h263.645c8.82.008 16.638 3.52 22.434 9.287 5.767 5.8 9.283 13.619 9.292 22.434v132.194l34.583-34.583V96.058c-.013-36.627-29.682-66.296-66.309-66.304H64.628c-23.096.017-41.785 18.71-41.798 41.802v50.507h34.583zM359.998 415.943c-.009 8.814-3.525 16.633-9.292 22.424-5.796 5.775-13.614 9.288-22.434 9.296H64.628c-3.973-.008-7.206-3.242-7.215-7.218v-50.507H22.83v50.507c.013 23.092 18.702 41.785 41.798 41.801h263.645c36.627-.008 66.296-29.677 66.309-66.303v-58.274l-34.583 34.583v23.691z" class="st0"/><path d="M281.81 333.344v55.099h55.101l136.086-136.086-55.1-55.1z" class="st0"/></svg>