<svg xmlns="http://www.w3.org/2000/svg" width="320" height="320" viewBox="0 0 1000 1000"><path stroke="#000" d="M215.8 147.55c0-4.4 1.08-8.42 3.23-12.07 2.17-3.64 5.09-6.56 8.77-8.76q5.52-3.3 12.12-3.3c4.47 0 8.53 1.1 12.17 3.3 3.65 2.2 6.55 5.12 8.71 8.76 2.16 3.65 3.25 7.67 3.25 12.07 0 4.33-1.09 8.34-3.25 12.01-2.16 3.68-5.06 6.62-8.71 8.82-3.64 2.19-7.7 3.29-12.17 3.29-4.4 0-8.44-1.1-12.12-3.29-3.68-2.2-6.6-5.14-8.77-8.82-2.15-3.67-3.23-7.68-3.23-12.01Zm100.03 60.7v-26.83h121.19v26.83zm117 0v-26.83h134.19v26.83zm130 0v-26.83h121.2v26.83zm172.97-60.7c0-4.4 1.08-8.42 3.23-12.07 2.17-3.64 5.09-6.56 8.77-8.76q5.52-3.3 12.12-3.3c4.47 0 8.53 1.1 12.17 3.3 3.65 2.2 6.55 5.12 8.71 8.76 2.16 3.65 3.25 7.67 3.25 12.07 0 4.33-1.09 8.34-3.25 12.01-2.16 3.68-5.06 6.62-8.71 8.82-3.64 2.19-7.7 3.29-12.17 3.29-4.4 0-8.44-1.1-12.12-3.29-3.68-2.2-6.6-5.14-8.77-8.82-2.15-3.67-3.23-7.68-3.23-12.01Zm-459.85 98.67v23.8q-9.84 0-15.36 2.76c-3.68 1.84-5.26 5.5-4.76 10.99l3.36 31.92c.86 8.07-.03 14.6-2.66 19.58-2.64 4.98-6.64 8.78-12.01 11.42-5.38 2.63-11.71 4.49-18.99 5.56 7.72 1.16 14.24 3.04 19.58 5.64 5.34 2.59 9.24 6.34 11.69 11.25s3.25 11.47 2.39 19.69l-3.36 31.92c-.5 5.48 1.08 9.14 4.76 10.98 3.68 1.85 8.8 2.77 15.36 2.77v23.8c-19.9 0-33.88-3.01-41.92-9.03-8.04-6.03-11.31-16.32-9.8-30.89l3.25-30.96c.57-5.47-.35-9.77-2.76-12.87-2.42-3.1-5.97-5.29-10.66-6.55-4.68-1.26-10.1-1.89-16.23-1.89v-27.7c6.06 0 11.44-.63 16.12-1.89 4.69-1.26 8.26-3.45 10.71-6.55s3.39-7.4 2.82-12.88l-3.25-30.73c-1.58-14.86 1.66-25.27 9.74-31.22 8.08-5.94 22.08-8.92 41.98-8.92Zm93.97 63.08c11.83 0 21.9 2.52 30.19 7.58 8.3 5.05 14.65 12.14 19.05 21.26 4.39 9.13 6.59 19.82 6.59 32.08 0 19.19-4.91 34.23-14.72 45.12-9.8 10.89-23.51 16.33-41.11 16.33s-31.31-5.37-41.12-16.11c-9.81-10.75-14.71-25.79-14.71-45.12 0-12.2 2.22-22.88 6.66-32.03 4.44-9.16 10.82-16.3 19.14-21.43q12.495-7.68 30.03-7.68Zm0 25.22c-7 0-12.18 2.87-15.53 8.6-3.35 5.74-5.03 14.84-5.03 27.32 0 12.7 1.68 21.9 5.03 27.59 3.35 5.7 8.53 8.55 15.53 8.55s12.18-2.85 15.53-8.55c3.35-5.69 5.03-14.97 5.03-27.81 0-12.41-1.68-21.46-5.03-27.16-3.35-5.69-8.53-8.54-15.53-8.54Zm130 48.9c6.78 0 12.41 2.26 16.88 6.77 4.47 4.5 6.72 10.07 6.72 16.72 0 4.25-.78 8.5-2.33 12.76-1.56 4.25-3.89 9.91-6.99 16.99l-15.68 35.39H475.8l11.03-46c-3.31-2.09-5.86-4.82-7.63-8.21s-2.65-7.11-2.65-11.15c0-6.57 2.23-12.08 6.7-16.55 4.48-4.48 10.04-6.72 16.67-6.72Zm130-74.12c11.83 0 21.9 2.52 30.19 7.58 8.3 5.05 14.65 12.14 19.05 21.26 4.39 9.13 6.59 19.82 6.59 32.08 0 19.19-4.91 34.23-14.72 45.12-9.8 10.89-23.51 16.33-41.11 16.33s-31.31-5.37-41.12-16.11c-9.81-10.75-14.71-25.79-14.71-45.12 0-12.2 2.22-22.88 6.66-32.03 4.44-9.16 10.82-16.3 19.14-21.43q12.495-7.68 30.03-7.68Zm0 25.22c-7 0-12.18 2.87-15.53 8.6-3.35 5.74-5.03 14.84-5.03 27.32 0 12.7 1.68 21.9 5.03 27.59 3.35 5.7 8.53 8.55 15.53 8.55s12.18-2.85 15.53-8.55c3.35-5.69 5.03-14.97 5.03-27.81 0-12.41-1.68-21.46-5.03-27.16-3.35-5.69-8.53-8.54-15.53-8.54Zm93.97-88.3c19.91 0 33.88 2.99 41.92 8.98 8.05 5.98 11.32 16.3 9.8 30.94l-3.25 30.95c-.57 5.48.36 9.78 2.81 12.88 2.46 3.1 6.01 5.29 10.66 6.55s10.05 1.89 16.19 1.89v27.7c-6.07 0-11.44.63-16.13 1.89s-8.26 3.45-10.72 6.55c-2.45 3.1-3.38 7.4-2.81 12.87l3.25 30.74c1.66 14.78-1.57 25.16-9.69 31.15s-22.12 8.99-42.03 8.99v-23.8c6.63 0 11.79-.92 15.47-2.77 3.68-1.84 5.23-5.5 4.66-10.98l-3.36-31.92c-.87-8.15.02-14.69 2.65-19.63 2.64-4.94 6.66-8.74 12.07-11.37s11.76-4.49 19.04-5.58c-7.72-1.14-14.26-3.02-19.64-5.61-5.37-2.6-9.29-6.37-11.75-11.31-2.45-4.95-3.24-11.49-2.37-19.64l3.36-31.92c.57-5.49-1-9.15-4.72-10.99-3.71-1.84-8.85-2.76-15.41-2.76zm-516 466.01-26.72-12.21 91-188.83 26.5 12.23zm170.58-99.98c0-11.89-1.41-22.8-4.22-32.72s-7.23-19.63-13.25-29.11q-9.03-14.235-23.64-30.03l19.91-17.97c11.39 9.81 21.27 20.17 29.64 31.06 8.37 10.9 14.83 22.81 19.37 35.72q6.81 19.365 6.81 43.05 0 23.7-6.81 43.08c-4.54 12.9-11 24.81-19.37 35.7-8.37 10.9-18.25 21.24-29.64 31.05l-19.91-17.96c7.79-8.43 14.32-16.31 19.58-23.64 5.27-7.32 9.49-14.52 12.65-21.59a94.3 94.3 0 0 0 6.82-21.91c1.37-7.53 2.06-15.78 2.06-24.73Zm67.36 116v-26.83h121.19v26.83zm117 0v-26.83h121.2v26.83zm205.64-116c0-11.89-1.41-22.8-4.22-32.72s-7.23-19.63-13.25-29.11q-9.03-14.235-23.64-30.03l19.91-17.97c11.39 9.81 21.27 20.17 29.64 31.06 8.37 10.9 14.83 22.81 19.37 35.72q6.81 19.365 6.81 43.05 0 23.7-6.81 43.08c-4.54 12.9-11 24.81-19.37 35.7-8.37 10.9-18.25 21.24-29.64 31.05l-19.91-17.96c7.79-8.43 14.32-16.31 19.58-23.64 5.27-7.32 9.49-14.52 12.65-21.59a94.3 94.3 0 0 0 6.82-21.91c1.37-7.53 2.06-15.78 2.06-24.73ZM193.06 893.58v-26.63h93.72v26.63zm143.97-45.67-4.11-60.49h32.35l-4 60.49zm41.33 0-4-60.49h32.56l-4.11 60.49zm74.7 45.67v-26.63h93.72v26.63zm143.97-45.67-4.11-60.49h32.35l-4 60.49zm41.33 0-4-60.49h32.56l-4.11 60.49zm74.7 45.67v-26.63h93.72v26.63z"/></svg>